<svg width="30" height="30" viewBox="0 0 30 30" fill="none" xmlns="http://www.w3.org/2000/svg">
<path d="M13.5 2C6.6 2 1 7.6 1 14.5C1 21.4 6.6 27 13.5 27C20.4 27 26 21.4 26 14.5C26 7.6 20.4 2 13.5 2ZM13.5 24.5C7.9875 24.5 3.5 20.0125 3.5 14.5C3.5 8.9875 7.9875 4.5 13.5 4.5C19.0125 4.5 23.5 8.9875 23.5 14.5C23.5 20.0125 19.0125 24.5 13.5 24.5ZM18.7125 17.95L17.3375 16.575C18.225 14.9125 18 12.8125 16.6 11.4125C16.1942 11.0034 15.7113 10.6789 15.1791 10.4579C14.647 10.2369 14.0762 10.1237 13.5 10.125C13.4625 10.125 13.425 10.1375 13.3875 10.1375L14.75 11.5L13.425 12.825L9.8875 9.2875L13.425 5.75L14.75 7.075L13.55 8.275C15.1375 8.2875 16.7125 8.875 17.925 10.075C20.05 12.2125 20.3125 15.525 18.7125 17.95ZM17.1125 19.7125L13.575 23.25L12.25 21.925L13.4375 20.7375C11.804 20.7248 10.2412 20.0691 9.0875 18.9125C8.07005 17.894 7.43492 16.5558 7.28919 15.1235C7.14346 13.6913 7.49604 12.2526 8.2875 11.05L9.6625 12.425C8.775 14.0875 9 16.1875 10.4 17.5875C11.275 18.4625 12.4375 18.8875 13.6 18.85L12.25 17.5L13.575 16.175L17.1125 19.7125Z" fill="black"/>
</svg>
