<svg width="24" height="24" viewBox="0 0 24 24" fill="none" xmlns="http://www.w3.org/2000/svg">
<path d="M4.83335 2.83203C3.72878 2.83203 2.83334 3.72746 2.83334 4.83203V19.1654C2.83334 20.2699 3.72877 21.1654 4.83334 21.1654H19.1667C20.2712 21.1654 21.1667 20.2699 21.1667 19.1654V4.83203C21.1667 3.72746 20.2712 2.83203 19.1667 2.83203H4.83335ZM4.50001 4.4987H4.94584L8.50687 7.52187C8.88565 7.84345 9.4431 7.83813 9.81568 7.50938L12 5.58203L14.1843 7.50938C14.5569 7.83813 15.1144 7.84345 15.4932 7.52188L19.0542 4.4987H19.5V19.4987H4.50001V4.4987ZM7.58751 4.4987H10.7708L9.16668 5.91536L7.58751 4.4987ZM13.2292 4.4987H16.4125L14.8333 5.91536L13.2292 4.4987ZM7.00001 9.4987C6.53977 9.4987 6.16668 9.87179 6.16668 10.332C6.16668 10.7923 6.53977 11.1654 7.00001 11.1654H7.83334C8.29358 11.1654 8.66668 10.7923 8.66668 10.332C8.66668 9.87179 8.29358 9.4987 7.83334 9.4987H7.00001ZM11.1667 9.4987C10.7064 9.4987 10.3333 9.87179 10.3333 10.332C10.3333 10.7923 10.7064 11.1654 11.1667 11.1654H17C17.4602 11.1654 17.8333 10.7923 17.8333 10.332C17.8333 9.87179 17.4602 9.4987 17 9.4987H11.1667ZM7.00001 12.832C6.53977 12.832 6.16668 13.2051 6.16668 13.6654C6.16668 14.1256 6.53977 14.4987 7.00001 14.4987H7.83334C8.29358 14.4987 8.66668 14.1256 8.66668 13.6654C8.66668 13.2051 8.29358 12.832 7.83334 12.832H7.00001ZM11.1667 12.832C10.7064 12.832 10.3333 13.2051 10.3333 13.6654C10.3333 14.1256 10.7064 14.4987 11.1667 14.4987H17C17.4602 14.4987 17.8333 14.1256 17.8333 13.6654C17.8333 13.2051 17.4602 12.832 17 12.832H11.1667ZM14.5 16.1654C14.0398 16.1654 13.6667 16.5385 13.6667 16.9987C13.6667 17.4589 14.0398 17.832 14.5 17.832H17C17.4602 17.832 17.8333 17.4589 17.8333 16.9987C17.8333 16.5385 17.4602 16.1654 17 16.1654H14.5Z" fill="#4F5B6D"/>
</svg>
