<svg width="255" height="187" viewBox="0 0 255 187" fill="none" xmlns="http://www.w3.org/2000/svg">
<g clip-path="url(#clip0_886_66157)">
<path d="M102.038 38.7795H101.107V14.2164C101.107 12.3495 100.726 10.5009 99.9848 8.77605C99.2435 7.05123 98.1571 5.48402 96.7875 4.16391C95.4179 2.84379 93.7919 1.79661 92.0024 1.08217C90.2129 0.367723 88.295 1.58181e-06 86.3581 0H32.3667C28.4549 -7.18773e-06 24.7033 1.49778 21.9372 4.16387C19.1712 6.82996 17.6172 10.446 17.6172 14.2164V148.971C17.6172 150.838 17.9987 152.687 18.7399 154.412C19.4811 156.136 20.5676 157.704 21.9372 159.024C23.3068 160.344 24.9328 161.391 26.7223 162.106C28.5117 162.82 30.4297 163.188 32.3666 163.188H86.358C90.2698 163.188 94.0214 161.69 96.7874 159.024C99.5535 156.358 101.107 152.742 101.107 148.971V56.2639H102.038V38.7795Z" fill="#3F3D56"/>
<path d="M86.9536 3.69922H79.9059C80.23 4.4651 80.3538 5.29605 80.2662 6.11888C80.1786 6.9417 79.8825 7.73114 79.4038 8.41766C78.9251 9.10417 78.2786 9.66668 77.5213 10.0556C76.764 10.4446 75.919 10.6481 75.0608 10.6482H44.1299C43.2717 10.6481 42.4268 10.4446 41.6694 10.0557C40.9121 9.66669 40.2656 9.10417 39.7869 8.41766C39.3082 7.73115 39.0121 6.94171 38.9245 6.11888C38.8369 5.29606 38.9607 4.4651 39.2848 3.69922H32.7022C31.2558 3.69922 29.8235 3.97383 28.4871 4.50736C27.1507 5.0409 25.9365 5.82292 24.9136 6.80877C23.8908 7.79461 23.0795 8.96499 22.5259 10.2531C21.9724 11.5411 21.6875 12.9217 21.6875 14.3159V148.873C21.6875 150.267 21.9724 151.648 22.5259 152.936C23.0795 154.224 23.8908 155.394 24.9136 156.38C25.9364 157.366 27.1507 158.148 28.4871 158.682C29.8234 159.215 31.2557 159.49 32.7022 159.49H86.9536C88.4001 159.49 89.8324 159.215 91.1687 158.682C92.5051 158.148 93.7194 157.366 94.7422 156.38C95.765 155.394 96.5763 154.224 97.1299 152.936C97.6834 151.648 97.9683 150.267 97.9683 148.873V14.3159C97.9683 12.9217 97.6834 11.5411 97.1299 10.2531C96.5763 8.96499 95.765 7.79461 94.7422 6.80877C93.7194 5.82292 92.5051 5.0409 91.1687 4.50736C89.8324 3.97383 88.4001 3.69922 86.9536 3.69922Z" fill="white"/>
<path d="M119.343 163.212H0.312418C0.229559 163.212 0.150094 163.18 0.0915047 163.123C0.0329151 163.067 0 162.99 0 162.911C0 162.831 0.0329151 162.754 0.0915047 162.698C0.150094 162.641 0.229559 162.609 0.312418 162.609H119.343C119.426 162.609 119.506 162.641 119.564 162.698C119.623 162.754 119.656 162.831 119.656 162.911C119.656 162.99 119.623 163.067 119.564 163.123C119.506 163.18 119.426 163.212 119.343 163.212Z" fill="#CBCBCB"/>
<path d="M59.8278 104.092C74.3984 104.092 86.2103 92.7075 86.2103 78.6634C86.2103 64.6194 74.3984 53.2344 59.8278 53.2344C45.2571 53.2344 33.4453 64.6194 33.4453 78.6634C33.4453 92.7075 45.2571 104.092 59.8278 104.092Z" fill="#016AC0"/>
<path d="M57.2145 88.3634C56.621 88.3644 56.0432 88.1793 55.5684 87.8361L55.5389 87.8148L49.3387 83.2433C49.0515 83.0311 48.8106 82.7664 48.6295 82.4645C48.4484 82.1625 48.3309 81.8291 48.2835 81.4834C48.2361 81.1376 48.2598 80.7863 48.3533 80.4494C48.4468 80.1124 48.6083 79.7966 48.8284 79.5198C49.0486 79.243 49.3231 79.0107 49.6364 78.8362C49.9497 78.6617 50.2956 78.5484 50.6543 78.5027C51.013 78.4571 51.3775 78.4799 51.7271 78.57C52.0766 78.6602 52.4044 78.8158 52.6915 79.028L56.7075 81.9963L66.1976 70.0629C66.4176 69.7863 66.6921 69.5541 67.0052 69.3797C67.3184 69.2052 67.6641 69.0919 68.0227 69.0463C68.3813 69.0006 68.7456 69.0235 69.095 69.1136C69.4444 69.2037 69.772 69.3592 70.0591 69.5713L70.0599 69.5719L70.001 69.6507L70.0615 69.5719C70.6405 70.0009 71.0194 70.6338 71.1149 71.3317C71.2104 72.0296 71.0148 72.7356 70.5709 73.2946L59.4085 87.3246C59.1503 87.6479 58.8183 87.9095 58.4382 88.0891C58.0581 88.2687 57.6402 88.3615 57.217 88.3603L57.2145 88.3634Z" fill="white"/>
<path d="M216.894 165.712C217.215 165.211 217.593 164.747 218.021 164.328C218.197 164.151 218.383 163.985 218.575 163.824C219.741 162.823 221.163 162.14 222.695 161.844C224.226 161.549 225.811 161.652 227.288 162.143C228.764 162.634 230.078 163.495 231.094 164.637C232.111 165.78 232.793 167.163 233.072 168.644C234.36 164.051 231.006 159.527 227.634 156.052C224.26 152.578 220.403 148.768 220.423 144.008C220.432 141.359 221.777 138.996 223.806 137.244C223.869 137.191 223.931 137.138 223.995 137.087C226.448 135.06 229.604 134 232.833 134.118C238.831 134.428 244.068 138.314 247.705 142.923C253.56 150.338 256.125 160.748 252.027 169.19C248.422 176.615 240.733 181.024 232.886 184.568C231.791 185.063 230.697 185.544 229.606 186.009C229.599 186.011 229.591 186.016 229.583 186.017C229.531 186.04 229.478 186.062 229.429 186.085C229.204 186.181 228.979 186.277 228.755 186.371L228.859 186.436L229.181 186.638C229.069 186.572 228.959 186.509 228.847 186.444C228.814 186.424 228.778 186.405 228.745 186.385C224.891 184.157 220.984 181.799 218.321 178.319C215.56 174.706 214.45 169.531 216.894 165.712Z" fill="#F1F1F1"/>
<path d="M242.608 157.321C243.461 159.192 244.027 161.173 244.287 163.202C244.492 165.011 244.415 166.839 244.059 168.626C243.293 172.298 241.624 175.739 239.192 178.66C237.357 180.878 235.239 182.863 232.887 184.568C231.791 185.063 230.698 185.543 229.606 186.009C229.599 186.01 229.591 186.015 229.584 186.017C229.532 186.039 229.479 186.062 229.43 186.085C229.205 186.18 228.979 186.276 228.756 186.371L228.859 186.436L229.182 186.637C229.07 186.572 228.96 186.509 228.848 186.443C228.814 186.424 228.779 186.405 228.746 186.385C229.594 183.526 229.719 180.512 229.11 177.596C228.5 174.681 227.175 171.949 225.245 169.629C223.304 167.338 220.829 165.521 218.021 164.328C218.198 164.151 218.384 163.985 218.576 163.824C219.657 164.302 220.692 164.872 221.67 165.526C225.165 167.855 227.789 171.206 229.155 175.084C230.374 178.602 230.526 182.383 229.594 185.981C229.787 185.859 229.981 185.734 230.17 185.61C233.76 183.276 237.069 180.474 239.562 177.037C241.711 174.132 243.087 170.762 243.567 167.224C244.045 163.36 243.042 159.56 241.252 156.111C239.275 152.422 236.784 149.011 233.849 145.972C230.9 142.85 227.566 140.087 223.921 137.745C223.839 137.692 223.781 137.61 223.76 137.516C223.739 137.423 223.756 137.326 223.807 137.244C223.846 137.17 223.914 137.113 223.996 137.087C224.038 137.076 224.081 137.075 224.123 137.084C224.165 137.092 224.205 137.109 224.239 137.134C224.689 137.424 225.136 137.716 225.576 138.016C229.247 140.521 232.58 143.456 235.5 146.754C238.322 149.932 240.889 153.463 242.608 157.321Z" fill="white"/>
<path d="M164.033 11.8087C167.127 11.8087 169.635 9.39082 169.635 6.40825C169.635 3.42567 167.127 1.00781 164.033 1.00781C160.938 1.00781 158.43 3.42567 158.43 6.40825C158.43 9.39082 160.938 11.8087 164.033 11.8087Z" fill="#F1F1F1"/>
<path d="M233.701 84.0773C235.588 84.0773 237.117 82.6032 237.117 80.7847C237.117 78.9663 235.588 77.4922 233.701 77.4922C231.815 77.4922 230.285 78.9663 230.285 80.7847C230.285 82.6032 231.815 84.0773 233.701 84.0773Z" fill="#F1F1F1"/>
<path d="M133.729 93.1124C135.615 93.1124 137.145 91.6383 137.145 89.8199C137.145 88.0015 135.615 86.5273 133.729 86.5273C131.842 86.5273 130.312 88.0015 130.312 89.8199C130.312 91.6383 131.842 93.1124 133.729 93.1124Z" fill="#F1F1F1"/>
<path d="M135.656 187.001H254.687C254.77 187.001 254.85 186.969 254.908 186.912C254.967 186.856 255 186.779 255 186.7C255 186.62 254.967 186.543 254.908 186.487C254.85 186.43 254.77 186.398 254.687 186.398H135.656C135.573 186.398 135.494 186.43 135.435 186.487C135.377 186.543 135.344 186.62 135.344 186.7C135.344 186.779 135.377 186.856 135.435 186.912C135.494 186.969 135.573 187.001 135.656 187.001Z" fill="#CBCBCB"/>
<path d="M241.551 29.0978C241.707 28.0282 241.451 26.9406 240.831 26.0409C240.211 25.1412 239.27 24.4921 238.186 24.2164C237.103 23.9408 235.952 24.0578 234.952 24.5453C233.952 25.0328 233.172 25.857 232.761 26.8616L223.102 37.5348L225.936 45.1644L235.65 32.6932C236.284 32.8889 236.954 32.9482 237.615 32.8671C238.275 32.7859 238.909 32.5662 239.471 32.2234C240.034 31.8807 240.512 31.4231 240.871 30.8831C241.23 30.3431 241.462 29.7337 241.551 29.0978Z" fill="#FFB7B7"/>
<path d="M201.514 70.6289L233.577 37.6467L229.252 31.0195L189.037 63.8014L201.514 70.6289Z" fill="#3F3D56"/>
<path d="M194.356 50.5913C200.568 50.5913 205.603 45.7378 205.603 39.7507C205.603 33.7637 200.568 28.9102 194.356 28.9102C188.145 28.9102 183.109 33.7637 183.109 39.7507C183.109 45.7378 188.145 50.5913 194.356 50.5913Z" fill="#2F2E41"/>
<path d="M195.262 33.6256C197.682 31.2601 200.611 29.4347 203.842 28.2779C205.916 27.5373 208.173 27.0797 210.342 27.5003C212.51 27.9209 214.56 29.3667 215.165 31.4173C215.66 33.0941 215.149 34.8994 214.382 36.4779C213.614 38.0563 212.589 39.52 211.968 41.1574C211.335 42.828 211.144 44.6247 211.414 46.3843C211.684 48.144 212.405 49.8108 213.513 51.2335C214.62 52.6562 216.079 53.7898 217.757 54.5313C219.434 55.2728 221.277 55.5988 223.118 55.4797C220.988 55.755 219.024 56.72 216.941 57.2337C214.859 57.7473 212.401 57.7125 210.854 56.2745C209.216 54.7531 209.183 52.2794 209.263 50.0886C209.38 46.8319 209.498 43.5753 209.616 40.3186C209.676 38.6577 209.727 36.9436 209.105 35.3935C208.484 33.8433 207.007 32.4859 205.283 32.5C203.976 32.5107 202.82 33.2737 201.772 34.0261C200.724 34.7786 199.615 35.5813 198.313 35.6933C197.012 35.8052 195.526 34.8768 195.623 33.6208L195.262 33.6256Z" fill="#2F2E41"/>
<path d="M151.641 112.537C150.561 112.826 149.409 112.724 148.402 112.249C147.396 111.774 146.605 110.959 146.18 109.96C145.755 108.961 145.725 107.846 146.096 106.826C146.467 105.807 147.212 104.954 148.192 104.43L157.908 93.8047L166.126 95.516L154.568 106.428C154.852 107.008 155.001 107.642 155.003 108.283C155.006 108.925 154.863 109.559 154.584 110.141C154.305 110.724 153.897 111.24 153.388 111.654C152.88 112.068 152.283 112.37 151.641 112.537H151.641Z" fill="#FFB7B7"/>
<path d="M183.607 74.5007L159.39 103.8L152.008 100.534L180.472 57.8203L183.607 74.5007Z" fill="#3F3D56"/>
<path d="M164.283 162.974L158.512 162.887L159.206 181.847H164.282L164.283 162.974Z" fill="#FFB7B7"/>
<path d="M165.578 180.25L155.581 180.25H155.58C153.891 180.25 152.27 180.897 151.075 182.049C149.88 183.2 149.209 184.762 149.209 186.391V186.591L165.578 186.591L165.578 180.25Z" fill="#2F2E41"/>
<path d="M202.498 157.945L196.193 161.847L208.805 176.471L213.077 173.827L202.498 157.945Z" fill="#FFB7B7"/>
<path d="M213.272 171.809L204.859 177.015L204.859 177.015C203.437 177.895 202.436 179.283 202.076 180.875C201.716 182.466 202.027 184.13 202.94 185.5L203.051 185.668L216.826 177.144L213.272 171.809Z" fill="#2F2E41"/>
<path d="M204.744 100.048C204.744 100.048 190.735 55.2023 186.233 54.5962C181.731 53.9902 174.477 66.1032 174.477 66.1032C165.073 77.669 155.375 115.133 155.375 115.133C155.375 115.133 171.542 116.108 183.359 122.168C195.177 128.229 209.124 121.862 209.124 121.862L204.744 100.048Z" fill="#3F3D56"/>
<path opacity="0.1" d="M204.744 100.048C204.744 100.048 190.735 55.202 186.233 54.596C181.731 53.99 176.32 66.2259 176.32 66.2259C171.634 84.8958 155.375 115.133 155.375 115.133C155.375 115.133 171.542 116.108 183.359 122.168C195.177 128.228 209.124 121.861 209.124 121.861L204.744 100.048Z" fill="black"/>
<path d="M193.252 86.6302V109.165L196.003 141.808L209.75 166.501L203.189 171.018L184.444 147.53L177.03 124.208L165.386 175.836L156.639 175.234L162.714 103.652L174.242 83.5039L193.252 86.6302Z" fill="#2F2E41"/>
<path d="M179.128 64.8321C174.754 69.0479 178.815 73.5648 178.815 73.5648L173.816 84.4054L193.499 89.5245L200.377 59.9001L195.691 55.0821C186.318 54.781 186.313 54.5938 186.313 54.5938C184.671 56.1427 179.128 64.8321 179.128 64.8321Z" fill="#016AC0"/>
<path d="M201.169 56.8322C200.275 56.1962 199.259 55.7375 198.18 55.4826C197.101 55.2277 195.98 55.1818 194.882 55.3474C193.785 55.513 192.732 55.8869 191.785 56.4474C190.839 57.008 190.017 57.744 189.367 58.6128C184.419 65.2534 179.844 75.9762 186.148 89.3494C196.27 110.823 205.078 121.815 208.659 121.814C208.815 121.815 208.971 121.792 209.119 121.744C211.323 121.024 214.51 117.429 215.087 114.261C215.294 113.127 215.245 111.547 213.838 110.463C209.796 107.347 202.541 97.6463 200.278 84.8778C199.027 77.8225 201.453 71.3957 203.708 67.2469C204.66 65.5302 204.939 63.5401 204.493 61.6415C204.046 59.7429 202.905 58.0629 201.278 56.9094L201.169 56.8322Z" fill="#3F3D56"/>
<path d="M194.935 49.524C198.947 47.4101 200.422 42.5615 198.229 38.6944C196.036 34.8273 191.005 33.4061 186.993 35.52C182.981 37.634 181.506 42.4826 183.7 46.3497C185.893 50.2168 190.923 51.638 194.935 49.524Z" fill="#FFB7B7"/>
<path d="M179.322 41.9208H191.277L191.4 40.2664L192.013 41.9208H193.853L194.096 38.6419L195.311 41.9208H198.873V41.7583C198.87 39.4756 197.928 37.2872 196.254 35.6731C194.579 34.059 192.309 33.151 189.94 33.1484H188.255C185.887 33.151 183.616 34.0589 181.942 35.6731C180.267 37.2872 179.325 39.4756 179.322 41.7583V41.9208Z" fill="#2F2E41"/>
<path d="M197.066 47.8651L202.168 46.2695V34.3281H192.531L192.77 34.5577C196.089 37.7529 199.781 49.0892 197.066 47.8651Z" fill="#2F2E41"/>
</g>
<defs>
<clipPath id="clip0_886_66157">
<rect width="255" height="187" fill="white"/>
</clipPath>
</defs>
</svg>
