<svg width="350" height="250" viewBox="0 0 350 250" fill="none" xmlns="http://www.w3.org/2000/svg">
<path d="M18.261 249.44C18.2376 249.318 15.9731 237.05 20.5978 226.861C25.2224 216.672 35.0941 212.179 35.1932 212.135L35.6444 211.934L35.751 212.492C35.7744 212.615 38.0389 224.882 33.4142 235.071C28.7898 245.26 18.918 249.753 18.8188 249.798L18.3674 249.999L18.261 249.44ZM35.0257 213.297C33.0483 214.307 25.2442 218.73 21.3383 227.335C17.432 235.941 18.6105 246.119 18.9863 248.636C20.9629 247.627 28.764 243.212 32.6737 234.597C36.5798 225.991 35.4017 215.815 35.0257 213.297V213.297Z" fill="#F1F1F1"/>
<path d="M29.88 231.498C21.5694 237.438 18.3687 249.237 18.3687 249.237C18.3687 249.237 28.6422 251.405 36.9529 245.464C45.2636 239.524 48.4643 227.726 48.4643 227.726C48.4643 227.726 38.1907 225.558 29.88 231.498Z" fill="#F1F1F1"/>
<path d="M155.735 136.274C155.862 135.497 155.843 134.696 155.681 133.928C155.519 133.16 155.218 132.444 154.797 131.83C154.377 131.215 153.849 130.718 153.249 130.372C152.65 130.027 151.994 129.842 151.327 129.83L147.479 118.332L141.027 119.406L146.654 135.553C146.711 136.884 147.178 138.144 147.965 139.093C148.752 140.043 149.805 140.617 150.925 140.705C152.044 140.794 153.152 140.392 154.039 139.575C154.925 138.759 155.529 137.584 155.735 136.274Z" fill="#9F616A"/>
<path d="M143.848 132.234L141.849 126.571L129.391 98.3985L130.069 46.2695L130.199 46.2491C138.17 44.9978 143.564 88.6331 143.789 90.4915L151.661 122.473L153.534 129.522L143.848 132.234Z" fill="#016AC0"/>
<path d="M124.706 242.155L130.763 242.154L133.645 214.398L124.705 214.399L124.706 242.155Z" fill="#9F616A"/>
<path d="M123.161 239.805L135.09 239.805H135.09C137.106 239.805 139.04 240.756 140.465 242.45C141.891 244.144 142.692 246.441 142.692 248.836V249.129L123.161 249.13L123.161 239.805Z" fill="#2F2E41"/>
<path d="M69.0133 231.194L73.9832 235.308L89.7049 214.494L82.3702 208.422L69.0133 231.194Z" fill="#9F616A"/>
<path d="M68.8764 228.215L78.6632 236.317L78.6636 236.317C80.3176 237.687 81.446 239.781 81.8005 242.138C82.1551 244.496 81.7067 246.925 80.5541 248.89L80.4129 249.131L64.389 235.865L68.8764 228.215Z" fill="#2F2E41"/>
<path d="M121.377 235.63L121.115 183.563L117.304 150.823L110.199 179.614L110.185 179.638L84.4357 224.049L74.4164 218.018L74.4713 217.863C75.0836 216.133 89.5117 175.496 93.3899 175.496C93.7285 175.525 94.0679 175.455 94.3787 175.292C94.6895 175.13 94.9625 174.88 95.1741 174.565C96.3123 172.759 95.3854 168.928 95.3759 168.889C94.2657 163.42 97.0571 161.558 97.613 161.247L99.1083 124.574L99.2634 124.587L139.802 127.965L138.101 173.815L134.443 233.888L134.317 233.905L121.377 235.63Z" fill="#2F2E41"/>
<path d="M140.421 136.093L140.246 136.076L96.6478 131.901L96.7554 114.763L98.8893 70.0155L98.9014 69.9845L107.592 47.5711L113.752 44.2572L122.739 43.6953L122.761 43.7018L130.964 46.1161L139.496 118.884L140.421 136.093Z" fill="#016AC0"/>
<path d="M124.148 37.9532C129.71 34.3406 131.755 26.0547 128.714 19.4461C125.673 12.8374 118.699 10.4087 113.136 14.0213C107.573 17.6339 105.529 25.9198 108.57 32.5285C111.61 39.1371 118.585 41.5659 124.148 37.9532Z" fill="#9F616A"/>
<path d="M107.098 29.4103V24.097C107.098 24.097 103.491 19.0504 107.458 17.7792C107.458 17.7792 108.54 5.0668 117.918 10.9992C117.918 10.9992 130.902 8.45677 129.46 17.3554C129.46 17.3554 132.706 15.0323 131.624 20.9647L129.531 30.5208C129.531 30.5208 130.542 24.2083 127.296 23.3608L125.492 22.0896C125.492 22.0896 120.443 28.022 112.868 20.8183C112.868 20.8183 109.622 19.8979 109.983 23.7116C110.344 27.5253 107.098 29.4103 107.098 29.4103Z" fill="#2F2E41"/>
<path d="M117.447 123.297C117.454 122.505 117.315 121.721 117.04 121C116.764 120.28 116.359 119.639 115.853 119.124C115.347 118.61 114.752 118.233 114.11 118.021C113.468 117.809 112.795 117.767 112.137 117.897L106.615 107.406L100.43 109.839L108.404 124.524C108.662 125.821 109.311 126.961 110.229 127.727C111.147 128.493 112.27 128.833 113.384 128.682C114.499 128.531 115.528 127.899 116.277 126.906C117.025 125.914 117.442 124.63 117.447 123.297Z" fill="#9F616A"/>
<path d="M103.182 119.986L93.1904 95.8861L93.1993 95.8275C93.2395 95.5606 97.2615 69.0297 100.338 59.2777C103.433 49.464 107.67 47.4936 107.849 47.4145L107.939 47.375L111.738 51.7045L106.475 93.4383L112.148 113.566L103.182 119.986Z" fill="#016AC0"/>
<path d="M350 0H330.654V22.9836H350V0Z" fill="#F1F1F1"/>
<path d="M198.595 89.4375H179.249V112.421H198.595V89.4375Z" fill="#F1F1F1"/>
<path d="M190.108 102.348H343.058V10.3594H190.108V102.348Z" fill="white"/>
<path d="M344.32 103.846H188.846V8.85938H344.32V103.846ZM191.369 100.848H341.796V11.8572H191.369V100.848Z" fill="#E5E5E5"/>
<path d="M326.145 42.6289H208.467V47.2652H326.145V42.6289Z" fill="#E5E5E5"/>
<path d="M326.145 53.8711H208.467V58.5074H326.145V53.8711Z" fill="#E5E5E5"/>
<path d="M326.144 70.4727H304.275V74.4961H326.144V70.4727Z" fill="#016AC0"/>
<path d="M160.657 249.98H0.420569C0.309027 249.98 0.202053 249.927 0.123181 249.833C0.0443095 249.74 0 249.613 0 249.48C0 249.348 0.0443095 249.22 0.123181 249.127C0.202053 249.033 0.309027 248.98 0.420569 248.98H160.657C160.769 248.98 160.876 249.033 160.955 249.127C161.034 249.22 161.078 249.348 161.078 249.48C161.078 249.613 161.034 249.74 160.955 249.833C160.876 249.927 160.769 249.98 160.657 249.98Z" fill="#CBCBCB"/>
</svg>
